<mxfile host="app.diagrams.net" modified="2022-07-13T03:39:04.836Z" agent="5.0 (Windows NT 10.0; Win64; x64) AppleWebKit/537.36 (KHTML, like Gecko) Chrome/103.0.0.0 Safari/537.36" etag="C1Bdy-1-Sbkjjl0V7OhE" version="20.0.3" type="github">
  <diagram id="_R-5ce8Pa_QDh1MnXKhp" name="Page-1">
    <mxGraphModel dx="1278" dy="547" grid="1" gridSize="10" guides="1" tooltips="1" connect="1" arrows="1" fold="1" page="1" pageScale="1" pageWidth="827" pageHeight="1169" math="0" shadow="0">
      <root>
        <mxCell id="0" />
        <mxCell id="1" parent="0" />
        <mxCell id="ukrD6VP8iaueiUXxFWR2-10" value="" style="edgeStyle=orthogonalEdgeStyle;rounded=0;orthogonalLoop=1;jettySize=auto;html=1;" edge="1" parent="1" target="ukrD6VP8iaueiUXxFWR2-9">
          <mxGeometry relative="1" as="geometry">
            <mxPoint x="170" y="160" as="sourcePoint" />
            <Array as="points">
              <mxPoint x="240" y="160" />
              <mxPoint x="240" y="70" />
            </Array>
          </mxGeometry>
        </mxCell>
        <mxCell id="ukrD6VP8iaueiUXxFWR2-12" value="" style="edgeStyle=orthogonalEdgeStyle;rounded=0;orthogonalLoop=1;jettySize=auto;html=1;" edge="1" parent="1" source="ukrD6VP8iaueiUXxFWR2-8" target="ukrD6VP8iaueiUXxFWR2-11">
          <mxGeometry relative="1" as="geometry" />
        </mxCell>
        <mxCell id="ukrD6VP8iaueiUXxFWR2-15" value="" style="edgeStyle=orthogonalEdgeStyle;rounded=0;orthogonalLoop=1;jettySize=auto;html=1;" edge="1" parent="1" source="ukrD6VP8iaueiUXxFWR2-8" target="ukrD6VP8iaueiUXxFWR2-14">
          <mxGeometry relative="1" as="geometry">
            <Array as="points">
              <mxPoint x="240" y="160" />
              <mxPoint x="240" y="260" />
            </Array>
          </mxGeometry>
        </mxCell>
        <mxCell id="ukrD6VP8iaueiUXxFWR2-8" value="目的" style="rounded=0;whiteSpace=wrap;html=1;" vertex="1" parent="1">
          <mxGeometry x="50" y="130" width="120" height="60" as="geometry" />
        </mxCell>
        <mxCell id="ukrD6VP8iaueiUXxFWR2-9" value="迅速反应（需求）" style="rounded=0;whiteSpace=wrap;html=1;" vertex="1" parent="1">
          <mxGeometry x="300" y="40" width="120" height="60" as="geometry" />
        </mxCell>
        <mxCell id="ukrD6VP8iaueiUXxFWR2-11" value="持续交付" style="rounded=0;whiteSpace=wrap;html=1;" vertex="1" parent="1">
          <mxGeometry x="300" y="130" width="120" height="60" as="geometry" />
        </mxCell>
        <mxCell id="ukrD6VP8iaueiUXxFWR2-14" value="快速迭代（修正）" style="rounded=0;whiteSpace=wrap;html=1;" vertex="1" parent="1">
          <mxGeometry x="300" y="230" width="120" height="60" as="geometry" />
        </mxCell>
      </root>
    </mxGraphModel>
  </diagram>
</mxfile>
